<?xml version="1.0" encoding="utf-8"?>
<!-- Generator: Adobe Illustrator 28.0.0, SVG Export Plug-In . SVG Version: 6.00 Build 0)  -->
<svg version="1.1" id="Layer_1" xmlns="http://www.w3.org/2000/svg" xmlns:xlink="http://www.w3.org/1999/xlink" x="0px" y="0px"
	 viewBox="0 0 747.99 953.85" style="enable-background:new 0 0 747.99 953.85;" xml:space="preserve">
<g>
	<g>
		<g>
			<g>
				<path style="fill:#55FFF5;" d="M373.99,67.34c-5.36,0-9.71-4.34-9.71-9.71V9.71c0-5.36,4.34-9.71,9.71-9.71
					c5.36,0,9.71,4.34,9.71,9.71v47.93C383.7,63,379.35,67.34,373.99,67.34z"/>
			</g>
		</g>
		<g>
			<g>
				<path style="fill:#55FFF5;" d="M597.69,160c-2.48,0-4.97-0.95-6.86-2.84c-3.79-3.79-3.79-9.94,0-13.73l33.9-33.89
					c3.79-3.79,9.93-3.79,13.73,0c3.79,3.79,3.79,9.94,0,13.72l-33.9,33.89C602.65,159.05,600.17,160,597.69,160z"/>
			</g>
		</g>
		<g>
			<g>
				<path style="fill:#55FFF5;" d="M116.4,641.29c-2.48,0-4.97-0.95-6.86-2.84c-3.79-3.79-3.79-9.94,0-13.72l33.89-33.89
					c3.79-3.79,9.93-3.79,13.73,0c3.79,3.79,3.79,9.94,0,13.73l-33.89,33.89C121.37,640.34,118.89,641.29,116.4,641.29z"/>
			</g>
		</g>
		<g>
			<g>
				<path style="fill:#55FFF5;" d="M738.28,383.7h-47.93c-5.36,0-9.71-4.34-9.71-9.71c0-5.36,4.34-9.71,9.71-9.71h47.93
					c5.36,0,9.71,4.34,9.71,9.71C747.99,379.35,743.64,383.7,738.28,383.7z"/>
			</g>
		</g>
		<g>
			<g>
				<path style="fill:#55FFF5;" d="M57.64,383.7H9.71c-5.36,0-9.71-4.34-9.71-9.71c0-5.36,4.34-9.71,9.71-9.71h47.93
					c5.36,0,9.71,4.34,9.71,9.71C67.34,379.35,63,383.7,57.64,383.7z"/>
			</g>
		</g>
		<g>
			<g>
				<path style="fill:#55FFF5;" d="M631.58,641.29c-2.48,0-4.97-0.95-6.86-2.84l-33.9-33.89c-3.79-3.79-3.79-9.93,0-13.73
					c3.79-3.79,9.93-3.79,13.73,0l33.9,33.89c3.79,3.79,3.79,9.93,0,13.72C636.55,640.34,634.07,641.29,631.58,641.29z"/>
			</g>
		</g>
		<g>
			<g>
				<path style="fill:#55FFF5;" d="M150.3,160c-2.48,0-4.97-0.95-6.86-2.84l-33.89-33.89c-3.79-3.79-3.79-9.94,0-13.72
					c3.79-3.79,9.93-3.79,13.72,0l33.89,33.89c3.79,3.79,3.79,9.94,0,13.73C155.26,159.05,152.78,160,150.3,160z"/>
			</g>
		</g>
		<g>
			<g>
				<path style="fill:#55FFF5;" d="M496.17,91.89c-1.25,0-2.52-0.24-3.74-0.76c-4.94-2.07-7.28-7.76-5.21-12.7l18.51-44.21
					c2.07-4.95,7.77-7.27,12.7-5.21c4.94,2.07,7.28,7.76,5.21,12.7l-18.51,44.21C503.57,89.65,499.96,91.89,496.17,91.89z"/>
			</g>
		</g>
		<g>
			<g>
				<path style="fill:#55FFF5;" d="M666.73,263.75c-3.82,0-7.44-2.27-8.99-6.03c-2.03-4.96,0.34-10.63,5.3-12.66l44.35-18.17
					c4.96-2.03,10.63,0.34,12.66,5.3c2.03,4.96-0.34,10.63-5.3,12.66l-44.35,18.17C669.2,263.52,667.95,263.75,666.73,263.75z"/>
			</g>
		</g>
		<g>
			<g>
				<path style="fill:#55FFF5;" d="M36.91,521.83c-3.82,0-7.45-2.27-8.99-6.03c-2.03-4.96,0.34-10.63,5.3-12.66l44.35-18.17
					c4.95-2.03,10.63,0.34,12.66,5.3c2.03,4.96-0.34,10.63-5.3,12.66L40.59,521.1C39.38,521.59,38.14,521.83,36.91,521.83z"/>
			</g>
		</g>
		<g>
			<g>
				<path style="fill:#55FFF5;" d="M710.01,524.39c-1.25,0-2.52-0.24-3.74-0.76l-44.22-18.51c-4.94-2.07-7.28-7.76-5.21-12.7
					c2.07-4.95,7.77-7.27,12.7-5.21l44.22,18.51c4.94,2.07,7.28,7.76,5.21,12.7C717.41,522.15,713.81,524.39,710.01,524.39z"/>
			</g>
		</g>
		<g>
			<g>
				<path style="fill:#55FFF5;" d="M82.18,261.53c-1.25,0-2.52-0.24-3.74-0.76l-44.21-18.51c-4.94-2.07-7.28-7.76-5.21-12.7
					c2.07-4.95,7.77-7.27,12.7-5.21l44.21,18.51c4.94,2.07,7.28,7.76,5.21,12.7C89.58,259.29,85.97,261.53,82.18,261.53z"/>
			</g>
		</g>
		<g>
			<g>
				<path style="fill:#55FFF5;" d="M254.04,90.97c-3.82,0-7.45-2.27-8.99-6.03l-18.17-44.35c-2.03-4.96,0.34-10.63,5.3-12.66
					c4.96-2.02,10.63,0.34,12.66,5.3l18.17,44.35c2.03,4.96-0.34,10.63-5.3,12.66C256.52,90.74,255.27,90.97,254.04,90.97z"/>
			</g>
		</g>
	</g>
	<g>
		<path style="fill:#55FFF5;" d="M459.02,835.82H295.07c-9.25,0-16.75-7.5-16.75-16.75l0,0c0-9.25,7.5-16.75,16.75-16.75h163.96
			c9.25,0,16.75,7.5,16.75,16.75l0,0C475.78,828.32,468.28,835.82,459.02,835.82z"/>
		<path style="fill:#55FFF5;" d="M459.02,888.43H295.07c-9.25,0-16.75-7.5-16.75-16.75l0,0c0-9.25,7.5-16.75,16.75-16.75h163.96
			c9.25,0,16.75,7.5,16.75,16.75l0,0C475.78,880.93,468.28,888.43,459.02,888.43z"/>
		<path style="fill:#55FFF5;" d="M337.26,908.24c-4.06,0-7.14,3.69-6.39,7.68c4.04,21.58,22.95,37.92,45.7,37.92
			c22.75,0,41.66-16.34,45.7-37.92c0.75-3.99-2.33-7.68-6.39-7.68H337.26z"/>
		<g>
			<path style="fill:#55FFF5;" d="M441.67,781.21H310.03c-22.81,0-42.01-17.83-43.72-40.58c-5.58-74.22-35.86-121.25-67.93-171.04
				c-34.97-54.3-71.13-110.44-71.13-201.23c0-122.59,87.69-225.77,208.52-245.32c28.25-4.57,58.02-4.21,86.1,1.03
				c117.39,21.95,202.59,124.69,202.59,244.29c0,90.79-36.16,146.94-71.14,201.23c-32.07,49.79-62.36,96.82-67.93,171.04
				C483.68,763.38,464.48,781.21,441.67,781.21z M375.81,152.19c-11.73,0-23.44,0.92-34.87,2.77
				c-105.07,17.01-181.34,106.74-181.34,213.38c0,81.27,32.05,131.03,65.98,183.72c32.84,50.99,66.8,103.72,72.99,186.14
				c0.45,5.97,5.48,10.65,11.45,10.65h131.65c6.07,0,11-4.58,11.45-10.65c6.19-82.41,40.16-135.14,73-186.14
				c33.93-52.68,65.98-102.44,65.98-183.72c0-104.03-74.09-193.39-176.18-212.48C402.84,153.42,389.32,152.19,375.81,152.19z"/>
		</g>
		<g>
			<path style="fill:#55FFF5;" d="M255.4,524.1c-5,0-9.92-2.31-13.09-6.65c-89.81-123.37-23.61-239.15-20.75-244.02
				c4.53-7.7,14.44-10.27,22.15-5.75c7.69,4.52,10.27,14.42,5.77,22.11c-2.48,4.27-57.99,102.87,18.99,208.61
				c5.26,7.22,3.67,17.34-3.55,22.6C262.03,523.09,258.7,524.1,255.4,524.1z"/>
		</g>
	</g>
</g>
</svg>
